<svg xmlns="http://www.w3.org/2000/svg" xmlns:xlink="http://www.w3.org/1999/xlink" width="500" zoomAndPan="magnify" viewBox="0 0 375 374.999991" height="500" preserveAspectRatio="xMidYMid meet" version="1.0"><defs><clipPath id="588c987585"><path d="M 77 83 L 298.167969 83 L 298.167969 295.546875 L 77 295.546875 Z M 77 83 " clip-rule="nonzero"/></clipPath></defs><path fill="#f2c94f" d="M 138.597656 142.050781 C 138.597656 142.050781 128.738281 136.203125 123.054688 128.015625 C 117.371094 119.824219 119.980469 104.757812 119.980469 104.757812 C 119.980469 104.757812 120.917969 93.414062 137.359375 86.480469 C 153.804688 79.546875 170.945312 86.898438 175.664062 89.578125 C 180.378906 92.253906 186.070312 102.097656 187.632812 109.296875 C 189.195312 116.496094 185.390625 125.675781 185.390625 125.675781 L 155.308594 133.363281 Z M 138.597656 142.050781 " fill-opacity="1" fill-rule="nonzero"/><g clip-path="url(#588c987585)"><path fill="#f9a59a" d="M 149.375 112.417969 L 149.375 104.644531 C 150.957031 104.820312 152.480469 105.230469 153.9375 105.867188 C 154.164062 105.964844 154.402344 106.015625 154.648438 106.019531 C 154.894531 106.023438 155.128906 105.976562 155.359375 105.882812 C 155.585938 105.789062 155.789062 105.65625 155.960938 105.480469 C 156.136719 105.308594 156.269531 105.105469 156.359375 104.878906 L 156.539062 104.429688 C 156.636719 104.203125 156.683594 103.964844 156.6875 103.71875 C 156.691406 103.472656 156.648438 103.234375 156.558594 103.003906 C 156.46875 102.773438 156.339844 102.566406 156.171875 102.386719 C 156.003906 102.207031 155.804688 102.0625 155.582031 101.960938 C 153.605469 101.085938 151.535156 100.59375 149.375 100.484375 L 149.375 97.292969 C 149.375 97.148438 149.347656 97.011719 149.292969 96.878906 C 149.238281 96.746094 149.160156 96.628906 149.058594 96.527344 C 148.957031 96.425781 148.839844 96.347656 148.707031 96.292969 C 148.574219 96.238281 148.4375 96.210938 148.292969 96.210938 L 147.308594 96.210938 C 147.164062 96.207031 147.023438 96.234375 146.890625 96.292969 C 146.757812 96.347656 146.640625 96.425781 146.539062 96.527344 C 146.4375 96.628906 146.355469 96.746094 146.300781 96.878906 C 146.246094 97.011719 146.21875 97.148438 146.21875 97.292969 L 146.21875 100.558594 C 140.210938 101.132812 137.363281 104.5625 137.363281 108.492188 C 137.363281 113.839844 141.945312 115.226562 146.21875 116.269531 L 146.21875 123.964844 C 144.046875 123.769531 142 123.144531 140.085938 122.097656 C 139.878906 121.980469 139.652344 121.910156 139.414062 121.886719 C 139.175781 121.863281 138.941406 121.890625 138.714844 121.964844 C 138.488281 122.042969 138.285156 122.160156 138.109375 122.320312 C 137.929688 122.484375 137.792969 122.675781 137.695312 122.894531 L 137.5625 123.199219 C 137.441406 123.457031 137.375 123.726562 137.359375 124.007812 C 137.34375 124.292969 137.382812 124.566406 137.46875 124.835938 C 137.558594 125.105469 137.695312 125.347656 137.875 125.566406 C 138.054688 125.785156 138.269531 125.960938 138.519531 126.097656 C 140.941406 127.316406 143.507812 127.992188 146.21875 128.128906 L 146.21875 131.3125 C 146.21875 131.453125 146.246094 131.59375 146.300781 131.726562 C 146.355469 131.859375 146.433594 131.976562 146.539062 132.078125 C 146.640625 132.183594 146.757812 132.261719 146.890625 132.316406 C 147.023438 132.371094 147.164062 132.398438 147.304688 132.398438 L 148.292969 132.398438 C 148.4375 132.398438 148.574219 132.371094 148.707031 132.316406 C 148.839844 132.261719 148.957031 132.179688 149.058594 132.078125 C 149.160156 131.976562 149.238281 131.859375 149.292969 131.726562 C 149.347656 131.59375 149.375 131.453125 149.375 131.3125 L 149.375 128.085938 C 155.417969 127.472656 158.308594 124.078125 158.308594 120.152344 C 158.3125 114.804688 153.648438 113.457031 149.375 112.417969 Z M 146.21875 111.605469 C 143.984375 110.953125 142.328125 110.109375 142.328125 108.257812 C 142.328125 106.566406 143.484375 105.175781 146.21875 104.757812 Z M 149.375 123.890625 L 149.375 117.074219 C 151.683594 117.730469 153.382812 118.613281 153.382812 120.503906 C 153.382812 122.160156 152.183594 123.464844 149.375 123.890625 Z M 298.152344 182.921875 C 298.152344 170.21875 287.441406 159.890625 274.269531 159.890625 C 272.253906 159.890625 270.261719 160.132812 268.304688 160.621094 L 264.699219 160.097656 C 262.425781 156.671875 259.898438 153.453125 257.109375 150.4375 C 257.9375 145.320312 261.339844 121.183594 252.097656 118.78125 C 243.714844 116.609375 235.066406 128.574219 232.613281 132.296875 C 227.933594 130.015625 223.089844 128.15625 218.082031 126.722656 C 214.75 121.234375 210.398438 115.878906 205.558594 114.449219 C 203.761719 113.914062 200.921875 113.882812 197.5625 116.730469 C 195.507812 118.582031 193.789062 120.707031 192.40625 123.105469 C 190.886719 123.105469 189.378906 123.148438 187.882812 123.21875 C 188.0625 122.644531 188.226562 122.0625 188.375 121.476562 C 188.523438 120.890625 188.652344 120.300781 188.765625 119.707031 C 188.875 119.113281 188.972656 118.515625 189.046875 117.917969 C 189.125 117.320312 189.1875 116.71875 189.226562 116.117188 C 189.269531 115.511719 189.292969 114.910156 189.300781 114.304688 C 189.308594 113.699219 189.296875 113.097656 189.269531 112.492188 C 189.242188 111.890625 189.195312 111.289062 189.128906 110.6875 C 189.066406 110.085938 188.984375 109.488281 188.886719 108.890625 C 188.789062 108.296875 188.671875 107.703125 188.539062 107.113281 C 188.402344 106.523438 188.253906 105.941406 188.085938 105.359375 C 187.917969 104.78125 187.730469 104.203125 187.53125 103.636719 C 187.328125 103.066406 187.109375 102.503906 186.875 101.945312 C 186.640625 101.390625 186.390625 100.839844 186.125 100.296875 C 185.855469 99.753906 185.574219 99.222656 185.277344 98.695312 C 184.976562 98.171875 184.664062 97.65625 184.335938 97.148438 C 184.007812 96.640625 183.664062 96.144531 183.304688 95.65625 C 182.949219 95.167969 182.578125 94.691406 182.191406 94.226562 C 181.804688 93.761719 181.40625 93.308594 180.996094 92.867188 C 180.582031 92.425781 180.160156 91.996094 179.722656 91.578125 C 179.285156 91.164062 178.835938 90.757812 178.375 90.367188 C 177.914062 89.976562 177.441406 89.601562 176.957031 89.238281 C 176.476562 88.875 175.980469 88.527344 175.476562 88.191406 C 174.976562 87.859375 174.460938 87.539062 173.941406 87.234375 C 173.417969 86.929688 172.886719 86.644531 172.347656 86.371094 C 171.808594 86.097656 171.261719 85.839844 170.707031 85.601562 C 170.152344 85.359375 169.59375 85.132812 169.027344 84.925781 C 168.457031 84.71875 167.886719 84.527344 167.308594 84.351562 C 166.730469 84.179688 166.144531 84.023438 165.558594 83.882812 C 164.96875 83.742188 164.378906 83.617188 163.785156 83.511719 C 163.1875 83.40625 162.59375 83.320312 161.992188 83.25 C 161.390625 83.179688 160.789062 83.125 160.1875 83.089844 C 159.582031 83.054688 158.980469 83.039062 158.375 83.039062 C 156.761719 83.039062 155.160156 83.164062 153.566406 83.417969 C 151.976562 83.164062 150.375 83.039062 148.761719 83.039062 C 147.878906 83.039062 147 83.074219 146.121094 83.148438 C 145.246094 83.226562 144.371094 83.335938 143.503906 83.488281 C 142.636719 83.636719 141.777344 83.820312 140.921875 84.046875 C 140.070312 84.269531 139.230469 84.527344 138.398438 84.820312 C 137.570312 85.117188 136.753906 85.445312 135.953125 85.8125 C 135.152344 86.175781 134.367188 86.574219 133.597656 87.003906 C 132.828125 87.4375 132.082031 87.902344 131.355469 88.394531 C 130.625 88.890625 129.917969 89.417969 129.238281 89.972656 C 128.554688 90.527344 127.894531 91.113281 127.261719 91.726562 C 126.628906 92.335938 126.023438 92.976562 125.441406 93.640625 C 124.863281 94.304688 124.316406 94.992188 123.792969 95.703125 C 123.273438 96.414062 122.785156 97.144531 122.328125 97.898438 C 121.871094 98.648438 121.445312 99.421875 121.054688 100.210938 C 120.664062 101 120.304688 101.804688 119.984375 102.621094 C 119.660156 103.441406 119.371094 104.273438 119.121094 105.117188 C 118.867188 105.960938 118.652344 106.816406 118.472656 107.679688 C 118.296875 108.539062 118.152344 109.410156 118.050781 110.285156 C 117.945312 111.160156 117.878906 112.035156 117.847656 112.917969 C 117.816406 113.796875 117.824219 114.675781 117.871094 115.554688 C 117.917969 116.4375 118 117.3125 118.121094 118.183594 C 118.242188 119.058594 118.398438 119.921875 118.59375 120.78125 C 118.785156 121.640625 119.015625 122.492188 119.285156 123.328125 C 119.550781 124.167969 119.855469 124.996094 120.191406 125.808594 C 120.527344 126.625 120.902344 127.421875 121.304688 128.203125 C 121.710938 128.984375 122.152344 129.746094 122.621094 130.492188 C 123.09375 131.234375 123.59375 131.960938 124.128906 132.660156 C 124.660156 133.363281 125.222656 134.039062 125.8125 134.691406 C 126.402344 135.347656 127.019531 135.972656 127.664062 136.574219 C 128.308594 137.175781 128.976562 137.746094 129.671875 138.289062 C 130.363281 138.832031 131.078125 139.347656 131.816406 139.828125 C 132.554688 140.3125 133.308594 140.761719 134.085938 141.179688 C 134.859375 141.597656 135.652344 141.980469 136.460938 142.332031 C 119.234375 156.167969 108.378906 176.273438 108.378906 198.617188 C 108.378906 202.265625 108.671875 205.890625 109.25 209.496094 C 107.902344 210.515625 106.410156 211.226562 104.765625 211.621094 C 103.125 212.019531 101.472656 212.074219 99.808594 211.78125 C 97.972656 204.746094 95.292969 200.558594 91.832031 199.339844 C 90.875 199.015625 89.898438 198.917969 88.902344 199.042969 C 87.902344 199.171875 86.980469 199.507812 86.136719 200.058594 C 84.617188 200.542969 83.5 201.851562 83.058594 203.726562 C 82.242188 207.175781 83.664062 213.085938 90.011719 218.964844 C 89.582031 219.5 88.421875 220.769531 86.925781 220.882812 C 85.738281 220.980469 84.480469 220.316406 83.179688 218.929688 C 81.558594 217.183594 80.070312 216.613281 78.757812 217.222656 C 77.496094 217.816406 76.917969 219.351562 77.175781 221.4375 C 77.625 225.167969 80.433594 229.394531 84.921875 230.269531 C 90.90625 231.433594 95.582031 227.863281 97.957031 225.460938 C 98.359375 225.054688 98.695312 224.683594 98.964844 224.371094 C 103.375 225.628906 107.929688 224.925781 112.585938 222.277344 C 115.175781 229.308594 118.773438 235.777344 123.378906 241.691406 L 112.324219 263.859375 C 112.140625 264.230469 111.988281 264.621094 111.875 265.019531 C 111.757812 265.421875 111.679688 265.832031 111.636719 266.246094 C 111.59375 266.660156 111.585938 267.078125 111.617188 267.496094 C 111.648438 267.910156 111.714844 268.320312 111.820312 268.726562 C 111.921875 269.128906 112.0625 269.523438 112.234375 269.902344 C 112.40625 270.28125 112.613281 270.644531 112.851562 270.988281 C 113.089844 271.332031 113.355469 271.648438 113.652344 271.945312 C 113.945312 272.242188 114.265625 272.507812 114.605469 272.75 L 122.914062 278.5 C 123.542969 278.933594 124.226562 279.257812 124.964844 279.46875 C 125.699219 279.679688 126.449219 279.765625 127.214844 279.730469 C 127.980469 279.699219 128.722656 279.542969 129.433594 279.265625 C 130.148438 278.988281 130.800781 278.605469 131.390625 278.117188 L 149.109375 263.347656 C 150.34375 264.007812 151.597656 264.636719 152.859375 265.246094 L 159.957031 287.113281 C 160.15625 287.722656 160.441406 288.285156 160.816406 288.800781 C 161.191406 289.320312 161.636719 289.765625 162.15625 290.140625 C 162.671875 290.515625 163.234375 290.804688 163.84375 291 C 164.449219 291.199219 165.074219 291.296875 165.714844 291.292969 L 174.285156 291.292969 C 174.679688 291.292969 175.074219 291.253906 175.464844 291.175781 C 175.851562 291.097656 176.230469 290.984375 176.597656 290.832031 C 176.964844 290.679688 177.3125 290.492188 177.644531 290.273438 C 177.972656 290.050781 178.277344 289.800781 178.558594 289.519531 C 178.839844 289.242188 179.089844 288.933594 179.3125 288.605469 C 179.53125 288.273438 179.71875 287.925781 179.871094 287.558594 C 180.023438 287.191406 180.140625 286.816406 180.21875 286.425781 C 180.292969 286.035156 180.332031 285.640625 180.335938 285.246094 L 180.335938 273.34375 C 184.34375 273.863281 188.371094 274.125 192.414062 274.125 L 193.078125 274.125 L 197.605469 290.433594 C 197.808594 291.171875 198.128906 291.855469 198.558594 292.488281 C 198.988281 293.125 199.507812 293.671875 200.117188 294.136719 C 200.726562 294.597656 201.394531 294.953125 202.117188 295.199219 C 202.84375 295.445312 203.589844 295.566406 204.355469 295.570312 L 214.460938 295.570312 C 214.878906 295.566406 215.292969 295.527344 215.703125 295.453125 C 216.113281 295.378906 216.515625 295.265625 216.90625 295.121094 C 217.296875 294.972656 217.671875 294.792969 218.03125 294.578125 C 218.390625 294.363281 218.726562 294.121094 219.042969 293.847656 C 219.359375 293.574219 219.648438 293.273438 219.910156 292.949219 C 220.171875 292.625 220.402344 292.28125 220.605469 291.914062 C 220.804688 291.546875 220.972656 291.164062 221.105469 290.769531 C 221.238281 290.375 221.335938 289.96875 221.398438 289.554688 L 224.421875 268.453125 C 226.574219 267.65625 228.675781 266.785156 230.683594 265.859375 C 230.96875 265.777344 231.234375 265.691406 231.511719 265.605469 L 271.296875 276.042969 C 271.71875 276.15625 272.148438 276.210938 272.585938 276.210938 C 273.460938 276.210938 274.273438 275.996094 275.035156 275.570312 C 275.792969 275.140625 276.398438 274.554688 276.851562 273.808594 L 281.695312 265.894531 C 282.019531 265.367188 282.238281 264.796875 282.347656 264.191406 C 282.460938 263.582031 282.464844 262.976562 282.351562 262.367188 C 282.238281 261.761719 282.023438 261.191406 281.703125 260.664062 C 281.382812 260.136719 280.976562 259.683594 280.488281 259.304688 L 266.101562 248.160156 C 287.953125 230.40625 287.675781 209.230469 286.929688 202.445312 C 288.625 201.4375 290.164062 200.234375 291.550781 198.828125 C 292.933594 197.425781 294.117188 195.867188 295.101562 194.15625 C 296.085938 192.445312 296.835938 190.640625 297.351562 188.734375 C 297.867188 186.832031 298.136719 184.894531 298.152344 182.921875 Z M 146.757812 135.253906 C 145.964844 135.214844 145.175781 135.132812 144.394531 135.003906 C 143.609375 134.878906 142.835938 134.707031 142.070312 134.492188 C 141.308594 134.28125 140.558594 134.023438 139.820312 133.726562 C 139.085938 133.429688 138.367188 133.09375 137.667969 132.71875 C 136.972656 132.339844 136.296875 131.925781 135.644531 131.472656 C 134.992188 131.019531 134.367188 130.535156 133.769531 130.011719 C 133.171875 129.488281 132.605469 128.9375 132.070312 128.351562 C 131.53125 127.765625 131.03125 127.152344 130.5625 126.511719 C 130.097656 125.871094 129.664062 125.203125 129.273438 124.515625 C 128.878906 123.828125 128.523438 123.117188 128.210938 122.386719 C 127.894531 121.660156 127.625 120.914062 127.390625 120.15625 C 127.160156 119.398438 126.972656 118.628906 126.828125 117.847656 C 126.683594 117.066406 126.582031 116.28125 126.523438 115.492188 C 126.464844 114.699219 126.449219 113.90625 126.480469 113.113281 C 126.511719 112.320312 126.585938 111.53125 126.707031 110.746094 C 126.824219 109.960938 126.984375 109.1875 127.191406 108.421875 C 127.394531 107.652344 127.644531 106.902344 127.933594 106.160156 C 128.222656 105.421875 128.550781 104.703125 128.921875 104 C 129.289062 103.296875 129.695312 102.617188 130.140625 101.960938 C 130.585938 101.304688 131.066406 100.675781 131.582031 100.070312 C 132.097656 99.46875 132.644531 98.894531 133.226562 98.351562 C 133.804688 97.808594 134.414062 97.300781 135.050781 96.828125 C 135.683594 96.351562 136.347656 95.914062 137.03125 95.515625 C 137.714844 95.113281 138.421875 94.753906 139.144531 94.429688 C 139.871094 94.109375 140.613281 93.828125 141.371094 93.589844 C 142.125 93.347656 142.894531 93.152344 143.671875 93 C 144.449219 92.84375 145.234375 92.734375 146.027344 92.667969 C 146.816406 92.601562 147.609375 92.578125 148.402344 92.601562 C 149.195312 92.625 149.984375 92.691406 150.769531 92.800781 C 151.558594 92.910156 152.335938 93.0625 153.101562 93.261719 C 153.871094 93.457031 154.628906 93.695312 155.367188 93.976562 C 156.109375 94.257812 156.835938 94.582031 157.542969 94.941406 C 158.246094 95.304688 158.933594 95.703125 159.59375 96.144531 C 160.253906 96.582031 160.890625 97.054688 161.5 97.5625 C 162.109375 98.074219 162.6875 98.613281 163.234375 99.1875 C 163.785156 99.761719 164.296875 100.363281 164.777344 100.996094 C 165.261719 101.625 165.703125 102.28125 166.113281 102.960938 C 166.519531 103.644531 166.890625 104.34375 167.21875 105.066406 C 167.550781 105.789062 167.839844 106.527344 168.085938 107.28125 C 168.332031 108.035156 168.539062 108.796875 168.699219 109.574219 C 168.863281 110.351562 168.980469 111.136719 169.054688 111.925781 C 169.128906 112.714844 169.160156 113.507812 169.148438 114.300781 C 169.132812 115.09375 169.078125 115.886719 168.976562 116.671875 C 168.871094 117.460938 168.726562 118.238281 168.539062 119.007812 C 168.351562 119.78125 168.121094 120.539062 167.847656 121.28125 C 167.574219 122.027344 167.257812 122.753906 166.90625 123.464844 C 166.550781 124.175781 166.160156 124.863281 165.726562 125.53125 C 165.296875 126.195312 164.828125 126.835938 164.328125 127.449219 C 158.183594 129.40625 152.328125 132.007812 146.757812 135.253906 Z M 186.578125 113.964844 C 186.582031 117.207031 186.035156 120.355469 184.941406 123.410156 C 182.582031 123.597656 180.253906 123.871094 177.949219 124.234375 C 178.34375 123.101562 178.667969 121.953125 178.929688 120.785156 C 179.148438 120.789062 179.398438 120.789062 179.675781 120.789062 C 180.558594 120.789062 181.761719 120.769531 183.410156 120.742188 C 183.636719 120.738281 183.824219 120.65625 183.980469 120.492188 C 184.136719 120.332031 184.214844 120.136719 184.210938 119.914062 C 184.203125 119.691406 184.121094 119.5 183.960938 119.34375 C 183.800781 119.1875 183.605469 119.109375 183.382812 119.109375 C 181.890625 119.136719 180.300781 119.152344 179.246094 119.152344 C 179.535156 117.433594 179.683594 115.707031 179.6875 113.964844 C 179.6875 113.636719 179.675781 113.316406 179.664062 112.996094 L 186.554688 112.996094 C 186.5625 113.316406 186.578125 113.636719 186.578125 113.964844 Z M 177.59375 93.351562 C 178.8125 94.488281 179.921875 95.722656 180.921875 97.050781 C 182.578125 99.257812 183.886719 101.65625 184.84375 104.246094 L 181.613281 104.246094 C 181.390625 104.246094 181.195312 104.324219 181.039062 104.484375 C 180.878906 104.644531 180.796875 104.835938 180.796875 105.0625 C 180.796875 105.285156 180.878906 105.480469 181.039062 105.640625 C 181.195312 105.796875 181.390625 105.878906 181.613281 105.878906 L 185.394531 105.878906 C 185.933594 107.667969 186.285156 109.496094 186.453125 111.359375 L 179.570312 111.359375 C 179.5625 111.207031 179.542969 111.054688 179.535156 110.902344 C 179.5 110.609375 179.46875 110.320312 179.4375 110.03125 C 179.414062 109.890625 179.402344 109.753906 179.382812 109.617188 C 179.328125 109.242188 179.273438 108.867188 179.207031 108.496094 C 179.195312 108.449219 179.1875 108.40625 179.183594 108.359375 C 179.109375 107.945312 179.023438 107.539062 178.929688 107.121094 C 178.902344 107.003906 178.875 106.878906 178.839844 106.757812 C 178.777344 106.46875 178.703125 106.179688 178.628906 105.898438 C 178.589844 105.75 178.550781 105.609375 178.507812 105.464844 C 178.433594 105.195312 178.351562 104.921875 178.269531 104.65625 C 178.226562 104.519531 178.1875 104.390625 178.144531 104.253906 C 178.035156 103.929688 177.925781 103.609375 177.804688 103.292969 C 177.785156 103.222656 177.757812 103.148438 177.734375 103.078125 C 177.589844 102.695312 177.4375 102.3125 177.277344 101.933594 C 177.234375 101.824219 177.1875 101.714844 177.136719 101.605469 C 177.015625 101.335938 176.902344 101.066406 176.777344 100.800781 C 176.710938 100.664062 176.652344 100.535156 176.585938 100.402344 C 176.46875 100.152344 176.34375 99.914062 176.21875 99.667969 C 176.152344 99.542969 176.085938 99.410156 176.015625 99.285156 C 175.90625 99.074219 175.785156 98.863281 175.667969 98.65625 L 179.789062 98.65625 C 180.015625 98.65625 180.207031 98.574219 180.367188 98.414062 C 180.527344 98.257812 180.605469 98.0625 180.605469 97.839844 C 180.605469 97.671875 180.558594 97.519531 180.464844 97.378906 C 180.300781 97.140625 180.078125 97.019531 179.789062 97.019531 L 174.675781 97.019531 C 174.648438 96.976562 174.621094 96.933594 174.59375 96.894531 C 174.433594 96.652344 174.269531 96.40625 174.101562 96.160156 C 174.011719 96.042969 173.921875 95.917969 173.839844 95.796875 L 173.363281 95.160156 L 173.085938 94.800781 C 172.90625 94.578125 172.726562 94.351562 172.542969 94.136719 C 172.464844 94.039062 172.390625 93.945312 172.3125 93.851562 C 172.171875 93.691406 172.03125 93.53125 171.890625 93.375 C 174.199219 93.34375 176.363281 93.335938 177.59375 93.351562 Z M 170.636719 88.570312 C 172.421875 89.4375 174.097656 90.484375 175.664062 91.703125 C 174.398438 91.707031 172.683594 91.726562 170.34375 91.761719 L 170.335938 91.757812 C 170.160156 91.578125 169.972656 91.402344 169.78125 91.230469 C 169.664062 91.121094 169.546875 91.011719 169.429688 90.90625 C 169.226562 90.730469 169.027344 90.554688 168.820312 90.378906 C 168.710938 90.285156 168.605469 90.191406 168.496094 90.101562 C 168.191406 89.851562 167.882812 89.605469 167.566406 89.363281 C 167.476562 89.292969 167.386719 89.230469 167.292969 89.164062 C 167.0625 88.984375 166.820312 88.808594 166.582031 88.640625 C 166.542969 88.617188 166.515625 88.59375 166.484375 88.570312 Z M 166.417969 86.9375 L 164.117188 86.9375 C 164.046875 86.9375 163.980469 86.949219 163.914062 86.96875 C 163.617188 86.804688 163.324219 86.640625 163.023438 86.492188 C 162.933594 86.441406 162.832031 86.398438 162.742188 86.355469 C 162.5 86.234375 162.261719 86.109375 162.015625 85.996094 C 163.507812 86.191406 164.976562 86.503906 166.417969 86.9375 Z M 120.550781 113.964844 C 120.554688 113.039062 120.597656 112.121094 120.691406 111.199219 C 120.78125 110.28125 120.917969 109.371094 121.097656 108.464844 C 121.28125 107.558594 121.503906 106.664062 121.773438 105.78125 C 122.042969 104.894531 122.355469 104.027344 122.707031 103.175781 C 123.0625 102.320312 123.457031 101.488281 123.894531 100.675781 C 124.328125 99.859375 124.804688 99.070312 125.316406 98.300781 C 125.828125 97.535156 126.378906 96.792969 126.964844 96.078125 C 127.550781 95.367188 128.171875 94.683594 128.824219 94.027344 C 129.476562 93.375 130.160156 92.757812 130.875 92.171875 C 131.589844 91.585938 132.328125 91.035156 133.097656 90.523438 C 133.863281 90.007812 134.65625 89.535156 135.46875 89.097656 C 136.285156 88.664062 137.117188 88.269531 137.972656 87.914062 C 138.824219 87.5625 139.691406 87.25 140.574219 86.980469 C 141.460938 86.710938 142.355469 86.488281 143.261719 86.304688 C 144.164062 86.125 145.078125 85.988281 145.996094 85.898438 C 146.914062 85.808594 147.835938 85.761719 148.761719 85.757812 C 150.300781 85.757812 151.828125 85.882812 153.34375 86.136719 C 154.164062 86.265625 154.972656 86.433594 155.777344 86.636719 C 156.578125 86.839844 157.371094 87.078125 158.152344 87.351562 C 158.933594 87.625 159.703125 87.933594 160.457031 88.273438 C 161.214844 88.617188 161.953125 88.988281 162.671875 89.398438 C 163.394531 89.804688 164.097656 90.242188 164.78125 90.710938 C 165.460938 91.179688 166.125 91.675781 166.761719 92.203125 C 167.402344 92.730469 168.015625 93.285156 168.605469 93.867188 C 169.195312 94.449219 169.757812 95.054688 170.292969 95.6875 C 170.828125 96.320312 171.335938 96.972656 171.816406 97.648438 C 172.292969 98.324219 172.738281 99.023438 173.15625 99.738281 C 173.574219 100.453125 173.957031 101.1875 174.308594 101.9375 C 174.660156 102.6875 174.976562 103.449219 175.261719 104.230469 C 175.546875 105.007812 175.796875 105.796875 176.007812 106.597656 C 176.222656 107.398438 176.402344 108.203125 176.542969 109.019531 C 176.6875 109.835938 176.792969 110.65625 176.863281 111.484375 C 176.933594 112.308594 176.96875 113.136719 176.964844 113.964844 C 176.964844 114.546875 176.941406 115.125 176.910156 115.699219 C 176.871094 116.347656 176.804688 116.992188 176.71875 117.628906 C 176.402344 120.09375 175.769531 122.476562 174.816406 124.777344 C 172.140625 125.292969 169.511719 125.921875 166.941406 126.660156 C 167.394531 125.976562 167.8125 125.269531 168.191406 124.539062 C 168.566406 123.8125 168.90625 123.066406 169.203125 122.300781 C 169.503906 121.535156 169.761719 120.753906 169.976562 119.960938 C 170.1875 119.167969 170.359375 118.367188 170.488281 117.554688 C 170.617188 116.742188 170.703125 115.929688 170.742188 115.109375 C 170.785156 114.289062 170.78125 113.46875 170.734375 112.648438 C 170.6875 111.828125 170.597656 111.011719 170.460938 110.203125 C 170.328125 109.390625 170.148438 108.589844 169.929688 107.800781 C 169.707031 107.007812 169.445312 106.230469 169.140625 105.46875 C 168.835938 104.703125 168.492188 103.960938 168.109375 103.234375 C 167.722656 102.507812 167.300781 101.804688 166.839844 101.125 C 166.382812 100.441406 165.886719 99.789062 165.355469 99.160156 C 164.828125 98.535156 164.265625 97.9375 163.671875 97.371094 C 163.078125 96.800781 162.453125 96.269531 161.800781 95.769531 C 161.152344 95.269531 160.472656 94.804688 159.773438 94.375 C 159.070312 93.949219 158.347656 93.558594 157.605469 93.210938 C 156.863281 92.859375 156.105469 92.550781 155.328125 92.28125 C 154.550781 92.011719 153.761719 91.785156 152.960938 91.601562 C 152.160156 91.417969 151.351562 91.277344 150.539062 91.183594 C 149.722656 91.085938 148.902344 91.03125 148.082031 91.023438 C 147.261719 91.015625 146.441406 91.046875 145.625 91.128906 C 144.804688 91.207031 143.996094 91.328125 143.191406 91.496094 C 142.386719 91.660156 141.59375 91.871094 140.808594 92.121094 C 140.027344 92.371094 139.261719 92.664062 138.511719 93 C 137.761719 93.332031 137.03125 93.703125 136.320312 94.117188 C 135.609375 94.527344 134.921875 94.976562 134.257812 95.464844 C 133.597656 95.949219 132.960938 96.46875 132.355469 97.023438 C 131.75 97.578125 131.175781 98.164062 130.628906 98.777344 C 130.085938 99.394531 129.578125 100.035156 129.101562 100.707031 C 128.628906 101.378906 128.191406 102.070312 127.789062 102.789062 C 127.390625 103.507812 127.03125 104.242188 126.710938 105 C 126.386719 105.753906 126.109375 106.527344 125.871094 107.3125 C 125.632812 108.097656 125.4375 108.894531 125.285156 109.703125 C 125.132812 110.507812 125.023438 111.324219 124.957031 112.140625 C 124.890625 112.960938 124.871094 113.78125 124.894531 114.601562 C 124.917969 115.421875 124.984375 116.238281 125.09375 117.054688 C 125.203125 117.867188 125.359375 118.671875 125.554688 119.472656 C 125.753906 120.269531 125.992188 121.054688 126.273438 121.824219 C 126.554688 122.597656 126.875 123.351562 127.238281 124.089844 C 127.601562 124.824219 128 125.542969 128.441406 126.234375 C 128.878906 126.929688 129.355469 127.597656 129.867188 128.242188 C 130.378906 128.882812 130.921875 129.496094 131.5 130.082031 C 132.074219 130.667969 132.683594 131.21875 133.320312 131.738281 C 133.957031 132.257812 134.617188 132.742188 135.304688 133.191406 C 135.992188 133.640625 136.703125 134.050781 137.4375 134.421875 C 138.167969 134.792969 138.917969 135.125 139.6875 135.417969 C 140.457031 135.707031 141.238281 135.957031 142.03125 136.164062 C 142.828125 136.371094 143.628906 136.535156 144.441406 136.65625 C 142.554688 137.839844 140.722656 139.089844 138.949219 140.402344 C 137.609375 139.90625 136.3125 139.308594 135.0625 138.613281 C 133.8125 137.917969 132.621094 137.128906 131.492188 136.253906 C 130.359375 135.375 129.300781 134.417969 128.316406 133.382812 C 127.332031 132.34375 126.429688 131.238281 125.613281 130.0625 C 124.796875 128.890625 124.070312 127.660156 123.441406 126.375 C 122.8125 125.089844 122.28125 123.765625 121.851562 122.402344 C 121.421875 121.035156 121.097656 119.644531 120.882812 118.230469 C 120.664062 116.816406 120.554688 115.394531 120.550781 113.964844 Z M 120.550781 113.964844 " fill-opacity="1" fill-rule="nonzero"/><path fill="#7c1d21" d="M 298.152344 182.921875 C 298.152344 170.21875 287.441406 159.890625 274.269531 159.890625 C 272.253906 159.890625 270.261719 160.132812 268.304688 160.621094 L 264.699219 160.097656 C 262.425781 156.671875 259.898438 153.453125 257.109375 150.4375 C 257.9375 145.320312 261.339844 121.183594 252.097656 118.78125 C 243.714844 116.609375 235.066406 128.574219 232.613281 132.296875 C 227.933594 130.015625 223.089844 128.15625 218.082031 126.722656 C 214.75 121.234375 210.398438 115.878906 205.558594 114.449219 C 203.761719 113.914062 200.921875 113.882812 197.5625 116.730469 C 195.507812 118.582031 193.789062 120.707031 192.40625 123.105469 C 190.886719 123.105469 189.378906 123.148438 187.882812 123.21875 C 188.0625 122.644531 188.226562 122.0625 188.375 121.476562 C 188.523438 120.890625 188.652344 120.300781 188.765625 119.707031 C 188.875 119.113281 188.972656 118.515625 189.046875 117.917969 C 189.125 117.320312 189.1875 116.71875 189.226562 116.117188 C 189.269531 115.511719 189.292969 114.910156 189.300781 114.304688 C 189.308594 113.699219 189.296875 113.097656 189.269531 112.492188 C 189.242188 111.890625 189.195312 111.289062 189.128906 110.6875 C 189.066406 110.085938 188.984375 109.488281 188.886719 108.890625 C 188.789062 108.296875 188.671875 107.703125 188.539062 107.113281 C 188.402344 106.523438 188.253906 105.941406 188.085938 105.359375 C 187.917969 104.78125 187.730469 104.203125 187.53125 103.636719 C 187.328125 103.066406 187.109375 102.503906 186.875 101.945312 C 186.640625 101.390625 186.390625 100.839844 186.125 100.296875 C 185.855469 99.753906 185.574219 99.222656 185.277344 98.695312 C 184.976562 98.171875 184.664062 97.65625 184.335938 97.148438 C 184.007812 96.640625 183.664062 96.144531 183.304688 95.65625 C 182.949219 95.167969 182.578125 94.691406 182.191406 94.226562 C 181.804688 93.761719 181.40625 93.308594 180.996094 92.867188 C 180.582031 92.425781 180.160156 91.996094 179.722656 91.578125 C 179.285156 91.164062 178.835938 90.757812 178.375 90.367188 C 177.914062 89.976562 177.441406 89.601562 176.957031 89.238281 C 176.476562 88.875 175.980469 88.527344 175.476562 88.191406 C 174.976562 87.859375 174.460938 87.539062 173.941406 87.234375 C 173.417969 86.929688 172.886719 86.644531 172.347656 86.371094 C 171.808594 86.097656 171.261719 85.839844 170.707031 85.601562 C 170.152344 85.359375 169.59375 85.132812 169.027344 84.925781 C 168.457031 84.71875 167.886719 84.527344 167.308594 84.351562 C 166.730469 84.179688 166.144531 84.023438 165.558594 83.882812 C 164.96875 83.742188 164.378906 83.617188 163.785156 83.511719 C 163.1875 83.40625 162.59375 83.320312 161.992188 83.25 C 161.390625 83.179688 160.789062 83.125 160.1875 83.089844 C 159.582031 83.054688 158.980469 83.039062 158.375 83.039062 C 156.761719 83.039062 155.160156 83.164062 153.566406 83.417969 C 151.976562 83.164062 150.375 83.039062 148.761719 83.039062 C 147.878906 83.039062 147 83.074219 146.121094 83.148438 C 145.246094 83.226562 144.371094 83.335938 143.503906 83.488281 C 142.636719 83.636719 141.777344 83.820312 140.921875 84.046875 C 140.070312 84.269531 139.230469 84.527344 138.398438 84.820312 C 137.570312 85.117188 136.753906 85.445312 135.953125 85.8125 C 135.152344 86.175781 134.367188 86.574219 133.597656 87.003906 C 132.828125 87.4375 132.082031 87.902344 131.355469 88.394531 C 130.625 88.890625 129.917969 89.417969 129.238281 89.972656 C 128.554688 90.527344 127.894531 91.113281 127.261719 91.726562 C 126.628906 92.335938 126.023438 92.976562 125.441406 93.640625 C 124.863281 94.304688 124.316406 94.992188 123.792969 95.703125 C 123.273438 96.414062 122.785156 97.144531 122.328125 97.898438 C 121.871094 98.648438 121.445312 99.421875 121.054688 100.210938 C 120.664062 101 120.304688 101.804688 119.984375 102.621094 C 119.660156 103.441406 119.371094 104.273438 119.121094 105.117188 C 118.867188 105.960938 118.652344 106.816406 118.472656 107.679688 C 118.296875 108.539062 118.152344 109.410156 118.050781 110.285156 C 117.945312 111.160156 117.878906 112.035156 117.847656 112.917969 C 117.816406 113.796875 117.824219 114.675781 117.871094 115.554688 C 117.917969 116.4375 118 117.3125 118.121094 118.183594 C 118.242188 119.058594 118.398438 119.921875 118.59375 120.78125 C 118.785156 121.640625 119.015625 122.492188 119.285156 123.328125 C 119.550781 124.167969 119.855469 124.996094 120.191406 125.808594 C 120.527344 126.625 120.902344 127.421875 121.304688 128.203125 C 121.710938 128.984375 122.152344 129.746094 122.621094 130.492188 C 123.09375 131.234375 123.59375 131.960938 124.128906 132.660156 C 124.660156 133.363281 125.222656 134.039062 125.8125 134.691406 C 126.402344 135.347656 127.019531 135.972656 127.664062 136.574219 C 128.308594 137.175781 128.976562 137.746094 129.671875 138.289062 C 130.363281 138.832031 131.078125 139.347656 131.816406 139.828125 C 132.554688 140.3125 133.308594 140.761719 134.085938 141.179688 C 134.859375 141.597656 135.652344 141.980469 136.460938 142.332031 C 119.234375 156.167969 108.378906 176.273438 108.378906 198.617188 C 108.378906 202.265625 108.671875 205.890625 109.25 209.496094 C 107.902344 210.515625 106.410156 211.226562 104.765625 211.621094 C 103.125 212.019531 101.472656 212.074219 99.808594 211.78125 C 97.972656 204.746094 95.292969 200.558594 91.832031 199.339844 C 90.875 199.015625 89.898438 198.917969 88.902344 199.042969 C 87.902344 199.171875 86.980469 199.507812 86.136719 200.058594 C 84.617188 200.542969 83.5 201.851562 83.058594 203.726562 C 82.242188 207.175781 83.664062 213.085938 90.011719 218.964844 C 89.582031 219.5 88.421875 220.769531 86.925781 220.882812 C 85.738281 220.980469 84.480469 220.316406 83.179688 218.929688 C 81.558594 217.183594 80.070312 216.613281 78.757812 217.222656 C 77.496094 217.816406 76.917969 219.351562 77.175781 221.4375 C 77.625 225.167969 80.433594 229.394531 84.921875 230.269531 C 90.90625 231.433594 95.582031 227.863281 97.957031 225.460938 C 98.359375 225.054688 98.695312 224.683594 98.964844 224.371094 C 103.375 225.628906 107.929688 224.925781 112.585938 222.277344 C 115.175781 229.308594 118.773438 235.777344 123.378906 241.691406 L 112.324219 263.859375 C 112.140625 264.230469 111.988281 264.621094 111.875 265.019531 C 111.757812 265.421875 111.679688 265.832031 111.636719 266.246094 C 111.59375 266.660156 111.585938 267.078125 111.617188 267.496094 C 111.648438 267.910156 111.714844 268.320312 111.820312 268.726562 C 111.921875 269.128906 112.0625 269.523438 112.234375 269.902344 C 112.40625 270.28125 112.613281 270.644531 112.851562 270.988281 C 113.089844 271.332031 113.355469 271.648438 113.652344 271.945312 C 113.945312 272.242188 114.265625 272.507812 114.605469 272.75 L 122.914062 278.5 C 123.542969 278.933594 124.226562 279.257812 124.964844 279.46875 C 125.699219 279.679688 126.449219 279.765625 127.214844 279.730469 C 127.980469 279.699219 128.722656 279.542969 129.433594 279.265625 C 130.148438 278.988281 130.800781 278.605469 131.390625 278.117188 L 149.109375 263.347656 C 150.34375 264.007812 151.597656 264.636719 152.859375 265.246094 L 159.957031 287.113281 C 160.15625 287.722656 160.441406 288.285156 160.816406 288.800781 C 161.191406 289.320312 161.636719 289.765625 162.15625 290.140625 C 162.671875 290.515625 163.234375 290.804688 163.84375 291 C 164.449219 291.199219 165.074219 291.296875 165.714844 291.292969 L 174.285156 291.292969 C 174.679688 291.292969 175.074219 291.253906 175.464844 291.175781 C 175.851562 291.097656 176.230469 290.984375 176.597656 290.832031 C 176.964844 290.679688 177.3125 290.492188 177.644531 290.273438 C 177.972656 290.050781 178.277344 289.800781 178.558594 289.519531 C 178.839844 289.242188 179.089844 288.933594 179.3125 288.605469 C 179.53125 288.273438 179.71875 287.925781 179.871094 287.558594 C 180.023438 287.191406 180.140625 286.816406 180.21875 286.425781 C 180.292969 286.035156 180.332031 285.640625 180.335938 285.246094 L 180.335938 273.34375 C 184.34375 273.863281 188.371094 274.125 192.414062 274.125 L 193.078125 274.125 L 197.605469 290.433594 C 197.808594 291.171875 198.128906 291.855469 198.558594 292.488281 C 198.988281 293.125 199.507812 293.671875 200.117188 294.136719 C 200.726562 294.597656 201.394531 294.953125 202.117188 295.199219 C 202.84375 295.445312 203.589844 295.566406 204.355469 295.570312 L 214.460938 295.570312 C 214.878906 295.566406 215.292969 295.527344 215.703125 295.453125 C 216.113281 295.378906 216.515625 295.265625 216.90625 295.121094 C 217.296875 294.972656 217.671875 294.792969 218.03125 294.578125 C 218.390625 294.363281 218.726562 294.121094 219.042969 293.847656 C 219.359375 293.574219 219.648438 293.273438 219.910156 292.949219 C 220.171875 292.625 220.402344 292.28125 220.605469 291.914062 C 220.804688 291.546875 220.972656 291.164062 221.105469 290.769531 C 221.238281 290.375 221.335938 289.96875 221.398438 289.554688 L 224.421875 268.453125 C 226.574219 267.65625 228.675781 266.785156 230.683594 265.859375 C 230.96875 265.777344 231.234375 265.691406 231.511719 265.605469 L 271.296875 276.042969 C 271.71875 276.15625 272.148438 276.210938 272.585938 276.210938 C 273.460938 276.210938 274.273438 275.996094 275.035156 275.570312 C 275.792969 275.140625 276.398438 274.554688 276.851562 273.808594 L 281.695312 265.894531 C 282.019531 265.367188 282.238281 264.796875 282.347656 264.191406 C 282.460938 263.582031 282.464844 262.976562 282.351562 262.367188 C 282.238281 261.761719 282.023438 261.191406 281.703125 260.664062 C 281.382812 260.136719 280.976562 259.683594 280.488281 259.304688 L 266.101562 248.160156 C 287.953125 230.40625 287.675781 209.230469 286.929688 202.445312 C 288.625 201.4375 290.164062 200.234375 291.550781 198.828125 C 292.933594 197.425781 294.117188 195.867188 295.101562 194.15625 C 296.085938 192.445312 296.835938 190.640625 297.351562 188.734375 C 297.867188 186.832031 298.136719 184.894531 298.152344 182.921875 Z M 251.414062 121.417969 C 256.511719 122.742188 256.222656 137.429688 254.730469 147.984375 C 248.882812 142.195312 242.324219 137.382812 235.046875 133.542969 C 238.238281 128.75 245.535156 119.898438 251.414062 121.417969 Z M 186.578125 113.964844 C 186.582031 117.207031 186.035156 120.355469 184.941406 123.410156 C 182.582031 123.597656 180.253906 123.871094 177.949219 124.234375 C 178.34375 123.101562 178.667969 121.953125 178.929688 120.785156 C 179.148438 120.789062 179.398438 120.789062 179.675781 120.789062 C 180.558594 120.789062 181.761719 120.769531 183.410156 120.742188 C 183.636719 120.738281 183.824219 120.65625 183.980469 120.492188 C 184.136719 120.332031 184.214844 120.136719 184.210938 119.914062 C 184.203125 119.691406 184.121094 119.5 183.960938 119.34375 C 183.800781 119.1875 183.605469 119.109375 183.382812 119.109375 C 181.890625 119.136719 180.300781 119.152344 179.246094 119.152344 C 179.535156 117.433594 179.683594 115.707031 179.6875 113.964844 C 179.6875 113.636719 179.675781 113.316406 179.664062 112.996094 L 186.554688 112.996094 C 186.5625 113.316406 186.578125 113.636719 186.578125 113.964844 Z M 177.59375 93.351562 C 178.8125 94.488281 179.921875 95.722656 180.921875 97.050781 C 182.578125 99.257812 183.886719 101.65625 184.84375 104.246094 L 181.613281 104.246094 C 181.390625 104.246094 181.195312 104.324219 181.039062 104.484375 C 180.878906 104.644531 180.796875 104.835938 180.796875 105.0625 C 180.796875 105.285156 180.878906 105.480469 181.039062 105.640625 C 181.195312 105.796875 181.390625 105.878906 181.613281 105.878906 L 185.394531 105.878906 C 185.933594 107.667969 186.285156 109.496094 186.453125 111.359375 L 179.570312 111.359375 C 179.5625 111.207031 179.542969 111.054688 179.535156 110.902344 C 179.5 110.609375 179.46875 110.320312 179.4375 110.03125 C 179.414062 109.890625 179.402344 109.753906 179.382812 109.617188 C 179.328125 109.242188 179.273438 108.867188 179.207031 108.496094 C 179.195312 108.449219 179.1875 108.40625 179.183594 108.359375 C 179.109375 107.945312 179.023438 107.539062 178.929688 107.121094 C 178.902344 107.003906 178.875 106.878906 178.839844 106.757812 C 178.777344 106.46875 178.703125 106.179688 178.628906 105.898438 C 178.589844 105.75 178.550781 105.609375 178.507812 105.464844 C 178.433594 105.195312 178.351562 104.921875 178.269531 104.65625 C 178.226562 104.519531 178.1875 104.390625 178.144531 104.253906 C 178.035156 103.929688 177.925781 103.609375 177.804688 103.292969 C 177.785156 103.222656 177.757812 103.148438 177.734375 103.078125 C 177.589844 102.695312 177.4375 102.3125 177.277344 101.933594 C 177.234375 101.824219 177.1875 101.714844 177.136719 101.605469 C 177.015625 101.335938 176.902344 101.066406 176.777344 100.800781 C 176.710938 100.664062 176.652344 100.535156 176.585938 100.402344 C 176.46875 100.152344 176.34375 99.914062 176.21875 99.667969 C 176.152344 99.542969 176.085938 99.410156 176.015625 99.285156 C 175.90625 99.074219 175.785156 98.863281 175.667969 98.65625 L 179.789062 98.65625 C 180.015625 98.65625 180.207031 98.574219 180.367188 98.414062 C 180.527344 98.257812 180.605469 98.0625 180.605469 97.839844 C 180.605469 97.671875 180.558594 97.519531 180.464844 97.378906 C 180.300781 97.140625 180.078125 97.019531 179.789062 97.019531 L 174.675781 97.019531 C 174.648438 96.976562 174.621094 96.933594 174.59375 96.894531 C 174.433594 96.652344 174.269531 96.40625 174.101562 96.160156 C 174.011719 96.042969 173.921875 95.917969 173.839844 95.796875 L 173.363281 95.160156 L 173.085938 94.800781 C 172.90625 94.578125 172.726562 94.351562 172.542969 94.136719 C 172.464844 94.039062 172.390625 93.945312 172.3125 93.851562 C 172.171875 93.691406 172.03125 93.53125 171.890625 93.375 C 174.199219 93.34375 176.363281 93.335938 177.59375 93.351562 Z M 170.636719 88.570312 C 172.421875 89.4375 174.097656 90.484375 175.664062 91.703125 C 174.398438 91.707031 172.683594 91.726562 170.34375 91.761719 L 170.335938 91.757812 C 170.160156 91.578125 169.972656 91.402344 169.78125 91.230469 C 169.664062 91.121094 169.546875 91.011719 169.429688 90.90625 C 169.226562 90.730469 169.027344 90.554688 168.820312 90.378906 C 168.710938 90.285156 168.605469 90.191406 168.496094 90.101562 C 168.191406 89.851562 167.882812 89.605469 167.566406 89.363281 C 167.476562 89.292969 167.386719 89.230469 167.292969 89.164062 C 167.0625 88.984375 166.820312 88.808594 166.582031 88.640625 C 166.542969 88.617188 166.515625 88.59375 166.484375 88.570312 Z M 166.417969 86.9375 L 164.117188 86.9375 C 164.046875 86.9375 163.980469 86.949219 163.914062 86.96875 C 163.617188 86.804688 163.324219 86.640625 163.023438 86.492188 C 162.933594 86.441406 162.832031 86.398438 162.742188 86.355469 C 162.5 86.234375 162.261719 86.109375 162.015625 85.996094 C 163.507812 86.191406 164.976562 86.503906 166.417969 86.9375 Z M 120.550781 113.964844 C 120.554688 113.039062 120.597656 112.121094 120.691406 111.199219 C 120.78125 110.28125 120.917969 109.371094 121.097656 108.464844 C 121.28125 107.558594 121.503906 106.664062 121.773438 105.78125 C 122.042969 104.894531 122.355469 104.027344 122.707031 103.175781 C 123.0625 102.320312 123.457031 101.488281 123.894531 100.675781 C 124.328125 99.859375 124.804688 99.070312 125.316406 98.300781 C 125.828125 97.535156 126.378906 96.792969 126.964844 96.078125 C 127.550781 95.367188 128.171875 94.683594 128.824219 94.027344 C 129.476562 93.375 130.160156 92.757812 130.875 92.171875 C 131.589844 91.585938 132.328125 91.035156 133.097656 90.523438 C 133.863281 90.007812 134.65625 89.535156 135.46875 89.097656 C 136.285156 88.664062 137.117188 88.269531 137.972656 87.914062 C 138.824219 87.5625 139.691406 87.25 140.574219 86.980469 C 141.460938 86.710938 142.355469 86.488281 143.261719 86.304688 C 144.164062 86.125 145.078125 85.988281 145.996094 85.898438 C 146.914062 85.808594 147.835938 85.761719 148.761719 85.757812 C 150.300781 85.757812 151.828125 85.882812 153.34375 86.136719 C 154.164062 86.265625 154.972656 86.433594 155.777344 86.636719 C 156.578125 86.839844 157.371094 87.078125 158.152344 87.351562 C 158.933594 87.625 159.703125 87.933594 160.457031 88.273438 C 161.214844 88.617188 161.953125 88.988281 162.671875 89.398438 C 163.394531 89.804688 164.097656 90.242188 164.78125 90.710938 C 165.460938 91.179688 166.125 91.675781 166.761719 92.203125 C 167.402344 92.730469 168.015625 93.285156 168.605469 93.867188 C 169.195312 94.449219 169.757812 95.054688 170.292969 95.6875 C 170.828125 96.320312 171.335938 96.972656 171.816406 97.648438 C 172.292969 98.324219 172.738281 99.023438 173.15625 99.738281 C 173.574219 100.453125 173.957031 101.1875 174.308594 101.9375 C 174.660156 102.6875 174.976562 103.449219 175.261719 104.230469 C 175.546875 105.007812 175.796875 105.796875 176.007812 106.597656 C 176.222656 107.398438 176.402344 108.203125 176.542969 109.019531 C 176.6875 109.835938 176.792969 110.65625 176.863281 111.484375 C 176.933594 112.308594 176.96875 113.136719 176.964844 113.964844 C 176.964844 114.546875 176.941406 115.125 176.910156 115.699219 C 176.871094 116.347656 176.804688 116.992188 176.71875 117.628906 C 176.402344 120.09375 175.769531 122.476562 174.816406 124.777344 C 172.140625 125.292969 169.511719 125.921875 166.941406 126.660156 C 167.394531 125.976562 167.8125 125.269531 168.191406 124.539062 C 168.566406 123.8125 168.90625 123.066406 169.203125 122.300781 C 169.503906 121.535156 169.761719 120.753906 169.976562 119.960938 C 170.1875 119.167969 170.359375 118.367188 170.488281 117.554688 C 170.617188 116.742188 170.703125 115.929688 170.742188 115.109375 C 170.785156 114.289062 170.78125 113.46875 170.734375 112.648438 C 170.6875 111.828125 170.597656 111.011719 170.460938 110.203125 C 170.328125 109.390625 170.148438 108.589844 169.929688 107.800781 C 169.707031 107.007812 169.445312 106.230469 169.140625 105.46875 C 168.835938 104.703125 168.492188 103.960938 168.109375 103.234375 C 167.722656 102.507812 167.300781 101.804688 166.839844 101.125 C 166.382812 100.441406 165.886719 99.789062 165.355469 99.160156 C 164.828125 98.535156 164.265625 97.9375 163.671875 97.371094 C 163.078125 96.800781 162.453125 96.269531 161.800781 95.769531 C 161.152344 95.269531 160.472656 94.804688 159.773438 94.375 C 159.070312 93.949219 158.347656 93.558594 157.605469 93.210938 C 156.863281 92.859375 156.105469 92.550781 155.328125 92.28125 C 154.550781 92.011719 153.761719 91.785156 152.960938 91.601562 C 152.160156 91.417969 151.351562 91.277344 150.539062 91.183594 C 149.722656 91.085938 148.902344 91.03125 148.082031 91.023438 C 147.261719 91.015625 146.441406 91.046875 145.625 91.128906 C 144.804688 91.207031 143.996094 91.328125 143.191406 91.496094 C 142.386719 91.660156 141.59375 91.871094 140.808594 92.121094 C 140.027344 92.371094 139.261719 92.664062 138.511719 93 C 137.761719 93.332031 137.03125 93.703125 136.320312 94.117188 C 135.609375 94.527344 134.921875 94.976562 134.257812 95.464844 C 133.597656 95.949219 132.960938 96.46875 132.355469 97.023438 C 131.75 97.578125 131.175781 98.164062 130.628906 98.777344 C 130.085938 99.394531 129.578125 100.035156 129.101562 100.707031 C 128.628906 101.378906 128.191406 102.070312 127.789062 102.789062 C 127.390625 103.507812 127.03125 104.242188 126.710938 105 C 126.386719 105.753906 126.109375 106.527344 125.871094 107.3125 C 125.632812 108.097656 125.4375 108.894531 125.285156 109.703125 C 125.132812 110.507812 125.023438 111.324219 124.957031 112.140625 C 124.890625 112.960938 124.871094 113.78125 124.894531 114.601562 C 124.917969 115.421875 124.984375 116.238281 125.09375 117.054688 C 125.203125 117.867188 125.359375 118.671875 125.554688 119.472656 C 125.753906 120.269531 125.992188 121.054688 126.273438 121.824219 C 126.554688 122.597656 126.875 123.351562 127.238281 124.089844 C 127.601562 124.824219 128 125.542969 128.441406 126.234375 C 128.878906 126.929688 129.355469 127.597656 129.867188 128.242188 C 130.378906 128.882812 130.921875 129.496094 131.5 130.082031 C 132.074219 130.667969 132.683594 131.21875 133.320312 131.738281 C 133.957031 132.257812 134.617188 132.742188 135.304688 133.191406 C 135.992188 133.640625 136.703125 134.050781 137.4375 134.421875 C 138.167969 134.792969 138.917969 135.125 139.6875 135.417969 C 140.457031 135.707031 141.238281 135.957031 142.03125 136.164062 C 142.828125 136.371094 143.628906 136.535156 144.441406 136.65625 C 142.554688 137.839844 140.722656 139.089844 138.949219 140.402344 C 137.609375 139.90625 136.3125 139.308594 135.0625 138.613281 C 133.8125 137.917969 132.621094 137.128906 131.492188 136.253906 C 130.359375 135.375 129.300781 134.417969 128.316406 133.382812 C 127.332031 132.34375 126.429688 131.238281 125.613281 130.0625 C 124.796875 128.890625 124.070312 127.660156 123.441406 126.375 C 122.8125 125.089844 122.28125 123.765625 121.851562 122.402344 C 121.421875 121.035156 121.097656 119.644531 120.882812 118.230469 C 120.664062 116.816406 120.554688 115.394531 120.550781 113.964844 Z M 164.328125 127.449219 C 158.183594 129.40625 152.328125 132.007812 146.757812 135.253906 C 145.964844 135.214844 145.175781 135.132812 144.394531 135.003906 C 143.609375 134.878906 142.835938 134.707031 142.070312 134.492188 C 141.308594 134.28125 140.558594 134.023438 139.820312 133.726562 C 139.085938 133.429688 138.367188 133.09375 137.667969 132.71875 C 136.972656 132.339844 136.296875 131.925781 135.644531 131.472656 C 134.992188 131.019531 134.367188 130.535156 133.769531 130.011719 C 133.171875 129.488281 132.605469 128.9375 132.070312 128.351562 C 131.53125 127.765625 131.03125 127.152344 130.5625 126.511719 C 130.097656 125.871094 129.664062 125.203125 129.273438 124.515625 C 128.878906 123.828125 128.523438 123.117188 128.210938 122.386719 C 127.894531 121.660156 127.625 120.914062 127.390625 120.15625 C 127.160156 119.398438 126.972656 118.628906 126.828125 117.847656 C 126.683594 117.066406 126.582031 116.28125 126.523438 115.492188 C 126.464844 114.699219 126.449219 113.90625 126.480469 113.113281 C 126.511719 112.320312 126.585938 111.53125 126.707031 110.746094 C 126.824219 109.960938 126.984375 109.1875 127.191406 108.421875 C 127.394531 107.652344 127.644531 106.902344 127.933594 106.160156 C 128.222656 105.421875 128.550781 104.703125 128.921875 104 C 129.289062 103.296875 129.695312 102.617188 130.140625 101.960938 C 130.585938 101.304688 131.066406 100.675781 131.582031 100.070312 C 132.097656 99.46875 132.644531 98.894531 133.226562 98.351562 C 133.804688 97.808594 134.414062 97.300781 135.050781 96.828125 C 135.683594 96.351562 136.347656 95.914062 137.03125 95.515625 C 137.714844 95.113281 138.421875 94.753906 139.144531 94.429688 C 139.871094 94.109375 140.613281 93.828125 141.371094 93.589844 C 142.125 93.347656 142.894531 93.152344 143.671875 93 C 144.449219 92.84375 145.234375 92.734375 146.027344 92.667969 C 146.816406 92.601562 147.609375 92.578125 148.402344 92.601562 C 149.195312 92.625 149.984375 92.691406 150.769531 92.800781 C 151.558594 92.910156 152.335938 93.0625 153.101562 93.261719 C 153.871094 93.457031 154.628906 93.695312 155.367188 93.976562 C 156.109375 94.257812 156.835938 94.582031 157.542969 94.941406 C 158.246094 95.304688 158.933594 95.703125 159.59375 96.144531 C 160.253906 96.582031 160.890625 97.054688 161.5 97.5625 C 162.109375 98.074219 162.6875 98.613281 163.234375 99.1875 C 163.785156 99.761719 164.296875 100.363281 164.777344 100.996094 C 165.261719 101.625 165.703125 102.28125 166.113281 102.960938 C 166.519531 103.644531 166.890625 104.34375 167.21875 105.066406 C 167.550781 105.789062 167.839844 106.527344 168.085938 107.28125 C 168.332031 108.035156 168.539062 108.796875 168.699219 109.574219 C 168.863281 110.351562 168.980469 111.136719 169.054688 111.925781 C 169.128906 112.714844 169.160156 113.507812 169.148438 114.300781 C 169.132812 115.09375 169.078125 115.886719 168.976562 116.671875 C 168.871094 117.460938 168.726562 118.238281 168.539062 119.007812 C 168.351562 119.78125 168.121094 120.539062 167.847656 121.28125 C 167.574219 122.027344 167.257812 122.753906 166.90625 123.464844 C 166.550781 124.175781 166.160156 124.863281 165.726562 125.53125 C 165.296875 126.195312 164.828125 126.835938 164.328125 127.449219 Z M 85.5 227.296875 C 82.679688 226.746094 81.289062 224.300781 80.820312 223.277344 C 80.351562 222.320312 80.128906 221.3125 80.144531 220.246094 C 80.441406 220.46875 80.714844 220.714844 80.964844 220.992188 C 82.933594 223.105469 85.03125 224.085938 87.191406 223.898438 C 88.703125 223.734375 90.023438 223.140625 91.148438 222.117188 C 92.152344 222.871094 93.425781 223.96875 93.894531 224.984375 C 91.804688 226.546875 88.867188 227.953125 85.5 227.296875 Z M 93.5 218.003906 C 87.34375 212.945312 85.292969 207.417969 86.003906 204.421875 C 86.121094 203.929688 86.421875 203.066406 87.140625 202.902344 C 87.171875 202.898438 87.203125 202.894531 87.234375 202.894531 C 87.503906 203.0625 88.023438 204.320312 88.367188 205.160156 C 89.660156 208.292969 91.609375 213.042969 98.238281 214.554688 L 98.324219 214.574219 L 98.332031 214.574219 C 100.296875 215.042969 102.277344 215.117188 104.273438 214.792969 C 106.265625 214.464844 108.121094 213.765625 109.832031 212.695312 C 110.304688 214.945312 110.890625 217.164062 111.589844 219.351562 C 105.214844 223.1875 99.261719 222.734375 93.503906 218.003906 Z M 177.613281 285.246094 C 177.609375 285.6875 177.527344 286.109375 177.359375 286.519531 C 177.1875 286.925781 176.949219 287.285156 176.636719 287.597656 C 176.324219 287.910156 175.964844 288.148438 175.558594 288.316406 C 175.148438 288.488281 174.726562 288.570312 174.285156 288.570312 L 165.714844 288.570312 C 165.398438 288.570312 165.089844 288.527344 164.785156 288.4375 C 164.464844 286.050781 164.027344 281.265625 165.203125 278.625 C 166.488281 275.722656 174.503906 274.117188 177.613281 273.597656 Z M 278.816406 261.457031 C 279.042969 261.628906 279.226562 261.835938 279.375 262.078125 C 279.523438 262.320312 279.621094 262.582031 279.671875 262.859375 C 279.722656 263.136719 279.722656 263.414062 279.671875 263.695312 C 279.621094 263.972656 279.519531 264.230469 279.371094 264.472656 L 274.53125 272.390625 C 274.164062 272.992188 273.628906 273.34375 272.933594 273.449219 C 270.367188 271.53125 264.921875 266.921875 263.707031 261.683594 C 263.28125 259.859375 263.203125 258.023438 263.46875 256.167969 C 263.730469 254.3125 264.324219 252.570312 265.242188 250.9375 Z M 229.808594 263.285156 C 229.75 263.300781 229.691406 263.324219 229.636719 263.351562 C 227.425781 264.367188 225.105469 265.316406 222.738281 266.171875 C 222.5 266.257812 222.304688 266.398438 222.144531 266.59375 C 221.984375 266.789062 221.886719 267.011719 221.851562 267.261719 L 218.707031 289.171875 C 218.628906 289.679688 218.46875 290.160156 218.222656 290.613281 C 217.972656 291.0625 217.65625 291.457031 217.265625 291.792969 C 216.875 292.132812 216.441406 292.390625 215.957031 292.570312 C 215.476562 292.753906 214.976562 292.84375 214.464844 292.84375 L 204.355469 292.84375 C 203.886719 292.84375 203.433594 292.769531 202.988281 292.621094 C 202.546875 292.46875 202.140625 292.253906 201.765625 291.96875 C 201.394531 291.6875 201.074219 291.351562 200.8125 290.964844 C 200.550781 290.578125 200.355469 290.160156 200.230469 289.710938 L 195.421875 272.378906 C 195.339844 272.085938 195.175781 271.847656 194.933594 271.660156 C 194.691406 271.476562 194.414062 271.382812 194.109375 271.382812 L 194.085938 271.382812 L 193.792969 271.390625 C 193.335938 271.398438 192.875 271.40625 192.414062 271.40625 C 184.9375 271.433594 177.570312 270.523438 170.324219 268.679688 C 163.074219 266.835938 156.171875 264.113281 149.613281 260.515625 C 149.367188 260.378906 149.105469 260.324219 148.824219 260.347656 C 148.542969 260.375 148.296875 260.476562 148.078125 260.65625 L 129.648438 276.027344 C 129.289062 276.328125 128.890625 276.5625 128.453125 276.730469 C 128.015625 276.898438 127.5625 276.996094 127.097656 277.015625 C 126.628906 277.035156 126.167969 276.984375 125.71875 276.855469 C 125.269531 276.722656 124.851562 276.527344 124.464844 276.261719 L 116.15625 270.511719 C 115.734375 270.21875 115.378906 269.859375 115.085938 269.433594 C 114.792969 269.011719 114.582031 268.550781 114.453125 268.054688 C 114.324219 267.554688 114.285156 267.050781 114.339844 266.539062 C 114.390625 266.027344 114.53125 265.539062 114.757812 265.078125 L 126.199219 242.140625 C 126.316406 241.902344 126.363281 241.652344 126.332031 241.390625 C 126.304688 241.125 126.210938 240.890625 126.046875 240.683594 C 116.265625 228.347656 111.101562 213.800781 111.101562 198.617188 C 111.101562 178.191406 120.550781 159.707031 135.746094 146.46875 C 135.964844 146.660156 136.207031 146.808594 136.472656 146.910156 C 136.742188 147.015625 137.019531 147.070312 137.304688 147.078125 C 137.59375 147.085938 137.871094 147.042969 138.144531 146.949219 C 138.417969 146.855469 138.664062 146.71875 138.890625 146.539062 C 162.621094 127.542969 190.015625 127.628906 190.015625 127.628906 C 186.578125 135.050781 184.335938 144.363281 184.335938 152.296875 C 184.332031 153.757812 184.414062 155.21875 184.585938 156.671875 C 184.628906 157.011719 184.777344 157.296875 185.035156 157.527344 C 185.292969 157.753906 185.59375 157.867188 185.9375 157.871094 C 185.992188 157.871094 186.050781 157.867188 186.105469 157.859375 C 186.285156 157.835938 186.453125 157.78125 186.609375 157.691406 C 186.765625 157.601562 186.898438 157.484375 187.011719 157.34375 C 187.121094 157.203125 187.203125 157.042969 187.25 156.871094 C 187.300781 156.695312 187.3125 156.519531 187.292969 156.339844 C 185.777344 144.082031 191.851562 125.140625 199.324219 118.808594 C 201.273438 117.152344 203.113281 116.5625 204.785156 117.054688 C 214.089844 119.804688 222.132812 141.195312 222.214844 141.410156 C 222.277344 141.578125 222.367188 141.734375 222.488281 141.867188 C 222.613281 142 222.757812 142.105469 222.921875 142.183594 C 223.085938 142.261719 223.257812 142.300781 223.441406 142.308594 C 223.621094 142.316406 223.796875 142.289062 223.96875 142.226562 C 224.140625 142.164062 224.289062 142.070312 224.421875 141.945312 C 224.554688 141.820312 224.660156 141.675781 224.734375 141.507812 C 224.808594 141.34375 224.847656 141.171875 224.855469 140.988281 C 224.859375 140.804688 224.828125 140.632812 224.761719 140.460938 C 223.414062 136.949219 221.851562 133.53125 220.078125 130.214844 C 236.957031 135.707031 251.632812 146.128906 261.386719 160.066406 C 258.75 160.195312 256.15625 160.585938 253.597656 161.238281 C 254.066406 159.960938 254.167969 158.65625 253.90625 157.324219 C 253.347656 154.285156 251.265625 152.125 249.238281 152.488281 C 247.210938 152.855469 246.027344 155.621094 246.574219 158.652344 C 246.917969 160.535156 247.859375 162.082031 248.992188 162.898438 C 248.117188 163.292969 247.296875 163.785156 246.539062 164.375 C 246.402344 164.492188 246.296875 164.632812 246.214844 164.789062 C 246.136719 164.949219 246.089844 165.121094 246.074219 165.296875 C 246.0625 165.476562 246.082031 165.652344 246.136719 165.820312 C 246.191406 165.992188 246.277344 166.144531 246.394531 166.28125 C 246.507812 166.417969 246.644531 166.527344 246.804688 166.609375 C 246.960938 166.691406 247.128906 166.742188 247.308594 166.757812 C 247.488281 166.773438 247.660156 166.757812 247.832031 166.703125 C 248.003906 166.652344 248.15625 166.566406 248.296875 166.453125 C 248.339844 166.417969 252.476562 163.023438 262.769531 162.734375 C 262.460938 162.898438 262.152344 163.066406 261.855469 163.246094 C 261.816406 163.269531 261.777344 163.292969 261.746094 163.308594 C 261.335938 163.550781 260.9375 163.808594 260.550781 164.074219 C 260.46875 164.125 260.394531 164.179688 260.3125 164.234375 C 259.9375 164.5 259.566406 164.773438 259.207031 165.054688 C 259.140625 165.105469 259.082031 165.160156 259.015625 165.207031 C 258.667969 165.492188 258.324219 165.777344 257.988281 166.078125 C 257.964844 166.105469 257.9375 166.128906 257.910156 166.148438 C 257.566406 166.464844 257.234375 166.792969 256.910156 167.121094 C 256.84375 167.1875 256.777344 167.253906 256.710938 167.324219 C 256.402344 167.652344 256.097656 167.988281 255.804688 168.332031 C 255.75 168.394531 255.699219 168.464844 255.644531 168.523438 C 255.355469 168.871094 255.078125 169.222656 254.8125 169.582031 L 254.761719 169.648438 C 254.492188 170.023438 254.230469 170.40625 253.980469 170.796875 L 253.832031 171.027344 C 253.59375 171.414062 253.363281 171.800781 253.152344 172.195312 C 253.105469 172.269531 253.070312 172.34375 253.03125 172.414062 C 252.820312 172.816406 252.613281 173.226562 252.425781 173.640625 C 252.417969 173.65625 252.410156 173.671875 252.402344 173.6875 C 252.210938 174.113281 252.03125 174.542969 251.867188 174.980469 C 251.835938 175.066406 251.800781 175.148438 251.769531 175.234375 C 251.617188 175.660156 251.46875 176.089844 251.339844 176.523438 C 251.316406 176.605469 251.289062 176.6875 251.269531 176.769531 C 251.136719 177.21875 251.023438 177.667969 250.917969 178.125 C 250.917969 178.136719 250.914062 178.140625 250.914062 178.152344 C 250.8125 178.617188 250.730469 179.085938 250.660156 179.550781 C 250.640625 179.640625 250.628906 179.726562 250.613281 179.816406 C 250.554688 180.269531 250.5 180.734375 250.46875 181.195312 C 250.457031 181.285156 250.457031 181.371094 250.449219 181.457031 C 250.417969 181.941406 250.394531 182.425781 250.394531 182.914062 C 250.394531 194.679688 259.582031 204.40625 271.394531 205.785156 C 268.542969 208.722656 262.628906 213.75 256.199219 212.996094 C 250.539062 212.339844 245.546875 207.324219 241.355469 198.09375 C 242.515625 197.46875 243.75 197.226562 245.058594 197.359375 C 245.238281 197.382812 245.414062 197.371094 245.585938 197.320312 C 245.761719 197.273438 245.917969 197.195312 246.0625 197.082031 C 246.203125 196.972656 246.320312 196.839844 246.40625 196.683594 C 246.496094 196.527344 246.554688 196.359375 246.574219 196.179688 C 246.597656 196.003906 246.585938 195.824219 246.539062 195.652344 C 246.492188 195.476562 246.414062 195.320312 246.304688 195.179688 C 246.191406 195.035156 246.058594 194.917969 245.902344 194.828125 C 245.746094 194.738281 245.582031 194.683594 245.402344 194.660156 C 245.253906 194.644531 241.804688 194.230469 239.035156 196.382812 C 237.253906 197.773438 236.1875 199.859375 235.859375 202.585938 C 235.839844 202.765625 235.851562 202.941406 235.902344 203.117188 C 235.953125 203.289062 236.03125 203.449219 236.144531 203.589844 C 236.253906 203.730469 236.390625 203.847656 236.546875 203.933594 C 236.707031 204.023438 236.875 204.078125 237.054688 204.097656 C 237.109375 204.105469 237.164062 204.109375 237.210938 204.109375 C 237.558594 204.109375 237.859375 203.992188 238.117188 203.765625 C 238.375 203.535156 238.523438 203.25 238.5625 202.90625 C 238.660156 201.960938 238.921875 201.0625 239.347656 200.210938 C 243.875 209.734375 249.4375 214.949219 255.878906 215.699219 C 256.421875 215.765625 256.964844 215.792969 257.507812 215.792969 C 266.105469 215.792969 273.167969 208.046875 274.933594 205.9375 C 275.191406 205.925781 275.453125 205.921875 275.714844 205.90625 C 275.875 205.898438 276.023438 205.882812 276.179688 205.871094 C 276.503906 205.847656 276.832031 205.816406 277.160156 205.78125 C 277.339844 205.757812 277.511719 205.730469 277.691406 205.710938 C 277.996094 205.664062 278.300781 205.617188 278.601562 205.5625 C 278.78125 205.535156 278.953125 205.503906 279.136719 205.464844 C 279.449219 205.40625 279.761719 205.332031 280.070312 205.257812 C 280.230469 205.21875 280.378906 205.1875 280.539062 205.144531 C 280.953125 205.035156 281.367188 204.914062 281.777344 204.785156 C 281.824219 204.773438 281.867188 204.761719 281.914062 204.746094 C 282.363281 204.597656 282.8125 204.4375 283.246094 204.265625 C 283.390625 204.207031 283.53125 204.148438 283.667969 204.09375 C 283.882812 204 284.109375 203.914062 284.320312 203.816406 C 285.132812 214.125 283.265625 247.121094 229.808594 263.285156 Z M 284.808594 200.546875 C 281.527344 202.347656 278.015625 203.25 274.269531 203.242188 C 262.609375 203.242188 253.117188 194.128906 253.117188 182.921875 C 253.117188 181.792969 253.214844 180.667969 253.414062 179.554688 C 253.503906 179.003906 253.625 178.460938 253.773438 177.925781 C 254.238281 176.230469 254.910156 174.617188 255.789062 173.09375 C 256.667969 171.570312 257.722656 170.179688 258.953125 168.921875 C 260.183594 167.667969 261.554688 166.585938 263.0625 165.679688 C 264.570312 164.769531 266.164062 164.066406 267.851562 163.566406 C 268.128906 163.480469 268.414062 163.398438 268.703125 163.320312 C 270.527344 162.847656 272.386719 162.613281 274.273438 162.613281 C 285.941406 162.613281 295.429688 171.722656 295.429688 182.925781 C 295.414062 184.734375 295.15625 186.507812 294.664062 188.25 C 294.171875 189.988281 293.457031 191.636719 292.523438 193.183594 C 291.589844 194.734375 290.46875 196.132812 289.160156 197.382812 C 287.847656 198.632812 286.398438 199.6875 284.808594 200.546875 Z M 290.589844 182.925781 C 290.589844 187.054688 288.449219 190.398438 285.808594 190.398438 C 283.167969 190.398438 281.023438 187.054688 281.023438 182.925781 C 281.023438 178.800781 283.164062 175.453125 285.808594 175.453125 C 288.453125 175.453125 290.589844 178.792969 290.589844 182.925781 Z M 274.269531 183.375 C 274.269531 187.5 272.132812 190.847656 269.492188 190.847656 C 266.851562 190.847656 264.703125 187.5 264.703125 183.375 C 264.703125 179.246094 266.84375 175.898438 269.492188 175.898438 C 272.136719 175.898438 274.269531 179.246094 274.269531 183.375 Z M 229.28125 161.800781 C 229.898438 165.199219 228.371094 168.324219 225.867188 168.78125 C 223.363281 169.238281 220.835938 166.847656 220.214844 163.449219 C 219.597656 160.054688 221.125 156.921875 223.628906 156.46875 C 226.132812 156.019531 228.660156 158.40625 229.28125 161.800781 Z M 149.375 112.417969 L 149.375 104.644531 C 150.957031 104.820312 152.480469 105.230469 153.9375 105.867188 C 154.164062 105.964844 154.402344 106.015625 154.648438 106.019531 C 154.894531 106.023438 155.128906 105.976562 155.359375 105.882812 C 155.585938 105.789062 155.789062 105.65625 155.960938 105.480469 C 156.136719 105.308594 156.269531 105.105469 156.359375 104.878906 L 156.539062 104.429688 C 156.636719 104.203125 156.683594 103.964844 156.6875 103.71875 C 156.691406 103.472656 156.648438 103.234375 156.558594 103.003906 C 156.46875 102.773438 156.339844 102.566406 156.171875 102.386719 C 156.003906 102.207031 155.804688 102.0625 155.582031 101.960938 C 153.605469 101.085938 151.535156 100.59375 149.375 100.484375 L 149.375 97.292969 C 149.375 97.148438 149.347656 97.011719 149.292969 96.878906 C 149.238281 96.746094 149.160156 96.628906 149.058594 96.527344 C 148.957031 96.425781 148.839844 96.347656 148.707031 96.292969 C 148.574219 96.238281 148.4375 96.210938 148.292969 96.210938 L 147.308594 96.210938 C 147.164062 96.207031 147.023438 96.234375 146.890625 96.292969 C 146.757812 96.347656 146.640625 96.425781 146.539062 96.527344 C 146.4375 96.628906 146.355469 96.746094 146.300781 96.878906 C 146.246094 97.011719 146.21875 97.148438 146.21875 97.292969 L 146.21875 100.558594 C 140.210938 101.132812 137.363281 104.5625 137.363281 108.492188 C 137.363281 113.839844 141.945312 115.226562 146.21875 116.269531 L 146.21875 123.964844 C 144.046875 123.769531 142 123.144531 140.085938 122.097656 C 139.878906 121.980469 139.652344 121.910156 139.414062 121.886719 C 139.175781 121.863281 138.941406 121.890625 138.714844 121.964844 C 138.488281 122.042969 138.285156 122.160156 138.109375 122.320312 C 137.929688 122.484375 137.792969 122.675781 137.695312 122.894531 L 137.5625 123.199219 C 137.441406 123.457031 137.375 123.726562 137.359375 124.007812 C 137.34375 124.292969 137.382812 124.566406 137.46875 124.835938 C 137.558594 125.105469 137.695312 125.347656 137.875 125.566406 C 138.054688 125.785156 138.269531 125.960938 138.519531 126.097656 C 140.941406 127.316406 143.507812 127.992188 146.21875 128.128906 L 146.21875 131.3125 C 146.21875 131.453125 146.246094 131.59375 146.300781 131.726562 C 146.355469 131.859375 146.433594 131.976562 146.539062 132.078125 C 146.640625 132.183594 146.757812 132.261719 146.890625 132.316406 C 147.023438 132.371094 147.164062 132.398438 147.304688 132.398438 L 148.292969 132.398438 C 148.4375 132.398438 148.574219 132.371094 148.707031 132.316406 C 148.839844 132.261719 148.957031 132.179688 149.058594 132.078125 C 149.160156 131.976562 149.238281 131.859375 149.292969 131.726562 C 149.347656 131.59375 149.375 131.453125 149.375 131.3125 L 149.375 128.085938 C 155.417969 127.472656 158.308594 124.078125 158.308594 120.152344 C 158.3125 114.804688 153.648438 113.457031 149.375 112.417969 Z M 146.21875 111.605469 C 143.984375 110.953125 142.328125 110.109375 142.328125 108.257812 C 142.328125 106.566406 143.484375 105.175781 146.21875 104.757812 Z M 149.375 123.890625 L 149.375 117.074219 C 151.683594 117.730469 153.382812 118.613281 153.382812 120.503906 C 153.382812 122.160156 152.183594 123.464844 149.375 123.890625 Z M 149.375 123.890625 " fill-opacity="1" fill-rule="nonzero"/></g><path fill="#ffc9c5" d="M 143.445312 153.519531 C 140.242188 157.359375 137.527344 161.523438 135.304688 166.003906 C 133.082031 170.488281 131.410156 175.164062 130.292969 180.042969 C 133.441406 178.308594 138.007812 179.308594 136.679688 194.667969 C 135.558594 207.625 131.152344 206.363281 128.273438 203.984375 C 128.769531 214.105469 130.679688 223.953125 134.007812 233.523438 C 97.652344 182.5 143.445312 153.519531 143.445312 153.519531 Z M 203.945312 280.304688 C 201.191406 274.15625 197.433594 264.335938 197.433594 264.335938 C 197.433594 264.335938 200.015625 286.226562 204.304688 289.238281 C 208.59375 292.246094 215.640625 290.363281 215.640625 290.363281 C 215.640625 290.363281 206.699219 286.453125 203.945312 280.304688 Z M 120.246094 265.382812 C 121.589844 270.449219 128.195312 273.542969 128.195312 273.542969 C 128.195312 273.542969 123.871094 264.792969 125.71875 258.316406 C 127.566406 251.839844 131.007812 241.902344 131.007812 241.902344 C 131.007812 241.902344 118.898438 260.320312 120.246094 265.382812 Z M 120.246094 265.382812 " fill-opacity="1" fill-rule="nonzero"/><path fill="#f86c5f" d="M 274.269531 162.613281 C 272.382812 162.609375 270.527344 162.847656 268.699219 163.320312 C 268.414062 163.398438 268.128906 163.476562 267.851562 163.566406 C 266.164062 164.066406 264.566406 164.769531 263.0625 165.675781 C 261.554688 166.582031 260.183594 167.664062 258.953125 168.921875 C 257.722656 170.175781 256.667969 171.566406 255.789062 173.089844 C 254.910156 174.617188 254.238281 176.226562 253.773438 177.921875 C 253.625 178.460938 253.503906 179.003906 253.414062 179.550781 C 253.214844 180.664062 253.117188 181.789062 253.117188 182.921875 C 253.117188 194.125 262.609375 203.242188 274.269531 203.242188 C 278.015625 203.246094 281.527344 202.347656 284.804688 200.542969 C 286.398438 199.683594 287.847656 198.628906 289.160156 197.378906 C 290.46875 196.132812 291.589844 194.730469 292.523438 193.183594 C 293.457031 191.632812 294.171875 189.988281 294.664062 188.246094 C 295.15625 186.503906 295.410156 184.730469 295.429688 182.921875 C 295.429688 171.722656 285.9375 162.613281 274.269531 162.613281 Z M 269.492188 190.847656 C 266.84375 190.847656 264.703125 187.5 264.703125 183.375 C 264.703125 179.246094 266.84375 175.898438 269.492188 175.898438 C 272.136719 175.898438 274.269531 179.246094 274.269531 183.375 C 274.269531 187.5 272.132812 190.847656 269.492188 190.847656 Z M 285.808594 190.398438 C 283.164062 190.398438 281.023438 187.054688 281.023438 182.925781 C 281.023438 178.796875 283.164062 175.449219 285.808594 175.449219 C 288.453125 175.449219 290.589844 178.792969 290.589844 182.925781 C 290.589844 187.058594 288.449219 190.398438 285.808594 190.398438 Z M 265.242188 250.941406 L 278.816406 261.460938 C 279.039062 261.632812 279.226562 261.839844 279.375 262.082031 C 279.519531 262.324219 279.621094 262.582031 279.671875 262.859375 C 279.722656 263.140625 279.722656 263.417969 279.671875 263.695312 C 279.617188 263.972656 279.519531 264.234375 279.371094 264.476562 L 274.53125 272.390625 C 274.160156 272.992188 273.628906 273.347656 272.929688 273.453125 C 270.367188 271.53125 264.921875 266.925781 263.707031 261.6875 C 263.28125 259.863281 263.199219 258.023438 263.464844 256.167969 C 263.730469 254.316406 264.324219 252.570312 265.242188 250.941406 Z M 254.730469 147.984375 C 248.882812 142.195312 242.324219 137.382812 235.046875 133.542969 C 238.238281 128.746094 245.535156 119.898438 251.414062 121.417969 C 256.511719 122.742188 256.222656 137.429688 254.730469 147.984375 Z M 177.613281 273.597656 L 177.613281 285.246094 C 177.609375 285.6875 177.527344 286.109375 177.359375 286.519531 C 177.1875 286.925781 176.949219 287.285156 176.636719 287.597656 C 176.324219 287.910156 175.964844 288.148438 175.558594 288.316406 C 175.148438 288.488281 174.726562 288.570312 174.285156 288.570312 L 165.714844 288.570312 C 165.398438 288.570312 165.089844 288.527344 164.785156 288.4375 C 164.464844 286.050781 164.027344 281.265625 165.203125 278.625 C 166.488281 275.722656 174.503906 274.117188 177.613281 273.597656 Z M 109.832031 212.695312 C 110.304688 214.945312 110.890625 217.164062 111.589844 219.351562 C 105.214844 223.1875 99.261719 222.734375 93.503906 218.003906 C 87.34375 212.945312 85.296875 207.417969 86.003906 204.421875 C 86.125 203.929688 86.425781 203.066406 87.144531 202.902344 C 87.171875 202.898438 87.203125 202.894531 87.234375 202.894531 C 87.507812 203.0625 88.023438 204.320312 88.367188 205.160156 C 89.664062 208.292969 91.613281 213.042969 98.238281 214.554688 L 98.328125 214.574219 L 98.332031 214.574219 C 100.296875 215.042969 102.277344 215.117188 104.273438 214.792969 C 106.265625 214.464844 108.117188 213.765625 109.832031 212.695312 Z M 93.894531 224.984375 C 91.804688 226.546875 88.867188 227.953125 85.5 227.296875 C 82.679688 226.75 81.289062 224.304688 80.820312 223.28125 C 80.351562 222.324219 80.128906 221.3125 80.144531 220.246094 C 80.441406 220.46875 80.714844 220.71875 80.964844 220.992188 C 82.933594 223.105469 85.03125 224.085938 87.191406 223.898438 C 88.703125 223.734375 90.023438 223.140625 91.148438 222.121094 C 92.152344 222.871094 93.425781 223.96875 93.894531 224.984375 Z M 224.902344 202.660156 C 224.902344 212.664062 215.957031 220.777344 204.925781 220.777344 C 193.890625 220.777344 184.949219 212.664062 184.949219 202.660156 C 184.949219 192.652344 193.890625 184.539062 204.925781 184.539062 C 215.957031 184.539062 224.898438 192.652344 224.898438 202.65625 Z M 195.472656 149.242188 C 196.453125 140.84375 199.078125 124.738281 204.71875 124.738281 C 210.683594 124.738281 214.71875 136.800781 216.195312 142.066406 C 216.289062 142.398438 216.320312 142.738281 216.292969 143.082031 C 216.265625 143.425781 216.175781 143.753906 216.03125 144.066406 C 215.882812 144.375 215.6875 144.652344 215.441406 144.894531 C 215.195312 145.136719 214.914062 145.328125 214.597656 145.46875 L 199.5 152.199219 C 199.027344 152.410156 198.535156 152.488281 198.019531 152.433594 C 197.507812 152.378906 197.042969 152.195312 196.625 151.890625 C 196.207031 151.585938 195.898438 151.195312 195.691406 150.722656 C 195.484375 150.25 195.410156 149.753906 195.472656 149.242188 Z M 195.472656 149.242188 " fill-opacity="1" fill-rule="nonzero"/></svg>